<?xml version="1.0" encoding="UTF-8"?>
<svg width="1200pt" height="1200pt" version="1.1" viewBox="0 0 1200 1200" xmlns="http://www.w3.org/2000/svg">
 <g fill="#fff">
  <path d="m1059.3 101.16h-918.52c-42.07 0-76.289 34.219-76.289 76.266v887.51c0 18.703 15.211 33.914 33.914 33.914h1003.3c18.703 0 33.914-15.211 33.914-33.914v-887.51c0-42.047-34.219-76.266-76.289-76.266zm48.164 963.77c0 3.2109-2.6016 5.7891-5.7891 5.7891h-1003.3c-3.1875 0-5.7891-2.5781-5.7891-5.7891v-782.23h1014.8zm0-810.35h-1014.8v-77.156c0-26.555 21.609-48.141 48.164-48.141h918.52c26.555 0 48.164 21.586 48.164 48.141z"/>
  <path d="m1074 999.14c0-78.867-51.188-145.97-122.06-169.97 30.141-19.078 50.227-52.688 50.227-90.938 0-59.32-48.281-107.58-107.6-107.58s-107.58 48.258-107.58 107.58c0 38.203 20.039 71.789 50.109 90.867-13.266 4.4766-25.992 10.523-37.992 18.094-33.492-43.852-80.062-74.977-132.21-89.414 47.93-24.469 80.836-74.297 80.836-131.7 0-81.469-66.281-147.77-147.77-147.77s-147.77 66.305-147.77 147.77c0 57.398 32.906 107.23 80.836 131.7-52.148 14.438-98.719 45.562-132.21 89.414-12-7.5703-24.727-13.617-37.992-18.094 30.07-19.078 50.109-52.664 50.109-90.867 0-59.32-48.258-107.58-107.6-107.58-59.32 0-107.58 48.258-107.58 107.58 0 38.227 20.086 71.859 50.227 90.938-70.875 24-122.06 91.102-122.06 169.97v14.062h948.09zm-593.7-373.05c0-65.977 53.672-119.65 119.65-119.65s119.65 53.672 119.65 119.65c0 65.977-53.672 119.65-119.65 119.65s-119.65-53.672-119.65-119.65zm300.52 358.99h-360.3v-116.98h-0.21094c41.883-57.328 108.45-91.312 179.65-91.312 71.906 0 139.08 34.664 180.87 93.023z"/>
  <path d="m1032.5 158.95c-21.258 0-38.531 17.297-38.531 38.531s17.273 38.531 38.531 38.531c21.234 0 38.508-17.297 38.508-38.531s-17.273-38.531-38.508-38.531zm0 48.938c-5.7422 0-10.406-4.6641-10.406-10.406s4.6641-10.406 10.406-10.406c5.7188 0 10.383 4.6641 10.383 10.406s-4.6641 10.406-10.383 10.406z"/>
  <path d="m942.47 158.95c-21.258 0-38.531 17.297-38.531 38.531s17.273 38.531 38.531 38.531c21.234 0 38.531-17.297 38.531-38.531s-17.297-38.531-38.531-38.531zm0 48.938c-5.7422 0-10.406-4.6641-10.406-10.406s4.6641-10.406 10.406-10.406 10.406 4.6641 10.406 10.406-4.6641 10.406-10.406 10.406z"/>
  <path d="m852.4 158.95c-21.234 0-38.531 17.297-38.531 38.531s17.297 38.531 38.531 38.531c21.234 0 38.531-17.297 38.531-38.531s-17.297-38.531-38.531-38.531zm0 48.938c-5.7422 0-10.406-4.6641-10.406-10.406s4.6641-10.406 10.406-10.406c5.7422 0 10.406 4.6641 10.406 10.406s-4.6641 10.406-10.406 10.406z"/>
 </g>
</svg>
